<?xml version="1.0" standalone="no"?>
<!DOCTYPE svg PUBLIC "-//W3C//DTD SVG 20010904//EN"
 "http://www.w3.org/TR/2001/REC-SVG-20010904/DTD/svg10.dtd">
<svg version="1.0" xmlns="http://www.w3.org/2000/svg"
 width="512.000000pt" height="512.000000pt" viewBox="0 0 512.000000 512.000000"
 preserveAspectRatio="xMidYMid meet">

<g transform="translate(0.000000,512.000000) scale(0.100000,-0.100000)"
fill="#000000" stroke="none">
<path d="M1755 4670 l-270 -270 -526 0 c-439 0 -534 -3 -584 -15 -177 -46
-318 -190 -360 -366 -22 -95 -22 -3331 0 -3427 21 -87 68 -176 128 -240 66
-69 120 -106 204 -140 l68 -27 381 -3 c364 -3 381 -2 404 16 17 14 24 30 24
56 0 72 10 70 -412 76 l-377 5 -67 33 c-82 40 -157 119 -190 200 l-23 57 -3
1428 -2 1429 39 -31 c57 -46 154 -88 229 -101 47 -7 436 -10 1303 -8 1200 3
1238 4 1258 22 27 25 28 79 1 106 -20 20 -33 20 -602 20 l-583 0 314 314 314
314 56 -27 c48 -22 69 -26 151 -26 83 0 102 4 155 28 l59 28 308 -308 c169
-169 308 -311 308 -315 0 -5 -58 -8 -129 -8 -110 0 -132 -3 -152 -18 -33 -27
-30 -78 5 -109 l27 -23 745 0 744 0 -2 -472 -3 -473 -395 -5 c-383 -5 -397 -6
-452 -28 -314 -126 -447 -478 -292 -773 69 -131 209 -239 355 -274 51 -12 139
-15 427 -15 l362 0 0 -485 0 -485 -1634 0 -1633 0 -27 -21 c-36 -28 -36 -80 0
-108 l27 -21 1682 0 c1642 0 1683 0 1706 19 l24 19 3 541 3 541 47 0 c26 0 65
9 87 19 51 23 111 89 124 138 7 23 11 175 11 399 l0 362 -28 53 c-40 76 -94
112 -177 117 l-65 4 0 523 c0 513 0 523 -21 549 l-20 26 -215 0 -214 0 0 430
0 431 -25 24 -24 25 -563 0 -562 0 -271 270 c-247 245 -275 270 -305 270 -29
0 -49 -15 -162 -127 l-128 -127 -128 127 c-105 105 -132 127 -157 127 -25 0
-68 -39 -300 -270z m-65 -635 l-545 -545 -172 0 c-95 0 -173 3 -173 7 0 4 52
59 115 123 112 114 124 134 109 175 -9 23 -61 47 -87 40 -12 -4 -99 -84 -194
-178 l-172 -171 -80 11 c-87 13 -144 37 -207 89 -116 93 -162 270 -114 427 26
84 96 164 178 204 l57 28 465 3 465 3 -119 -120 c-110 -110 -120 -124 -120
-157 0 -26 7 -42 23 -55 53 -43 47 -48 506 411 l430 430 90 -90 90 -90 -545
-545z m1575 85 l630 -630 -105 0 -105 0 -400 399 c-244 244 -410 402 -425 406
-18 4 -35 -1 -60 -19 -71 -52 -118 -68 -185 -64 -49 3 -72 10 -105 33 -76 53
-89 58 -119 46 -15 -7 -204 -189 -421 -406 l-395 -395 -105 0 -105 0 630 630
c346 347 632 630 635 630 3 0 289 -283 635 -630z m965 -250 l0 -380 -58 0 -57
0 -380 380 -380 380 438 0 437 0 0 -380z m719 -1656 c20 -26 21 -38 21 -371
l0 -344 -25 -25 -25 -25 -487 3 c-484 3 -488 3 -545 26 -67 27 -155 103 -192
166 -32 54 -56 144 -56 207 0 133 92 283 209 344 86 44 85 44 593 44 l487 1
20 -26z"/>
<path d="M4017 2076 c-95 -34 -157 -124 -157 -228 0 -97 47 -175 132 -219 180
-93 389 69 348 268 -30 142 -184 228 -323 179z m133 -151 c35 -18 55 -71 41
-107 -16 -42 -61 -71 -101 -64 -78 12 -106 101 -51 157 33 33 67 37 111 14z"/>
</g>
</svg>
