<?xml version="1.0" standalone="no"?>
<!DOCTYPE svg PUBLIC "-//W3C//DTD SVG 20010904//EN"
 "http://www.w3.org/TR/2001/REC-SVG-20010904/DTD/svg10.dtd">
<svg version="1.0" xmlns="http://www.w3.org/2000/svg"
 width="512.000000pt" height="512.000000pt" viewBox="0 0 512.000000 512.000000"
 preserveAspectRatio="xMidYMid meet">

<g transform="translate(0.000000,512.000000) scale(0.100000,-0.100000)"
fill="#000000" stroke="none">
<path d="M1274 5104 c-17 -8 -200 -185 -407 -392 -286 -287 -377 -384 -377
-402 0 -18 57 -81 223 -248 122 -123 234 -230 250 -238 36 -19 42 -16 167 110
57 58 108 106 112 106 5 0 8 -447 8 -993 0 -934 1 -995 18 -1009 19 -18 204
-67 364 -97 184 -35 346 -52 561 -58 150 -4 207 -9 207 -18 0 -6 -38 -360 -85
-786 -47 -426 -85 -800 -85 -832 0 -32 6 -72 14 -91 19 -46 72 -104 120 -129
40 -21 51 -22 351 -22 300 0 311 1 351 22 47 25 101 82 119 127 7 17 64 354
126 748 63 394 115 716 116 715 1 -2 45 -277 98 -612 131 -832 130 -830 161
-882 30 -51 91 -99 146 -113 24 -7 148 -10 326 -8 252 3 291 5 323 21 72 36
129 110 143 188 4 21 -10 186 -34 395 -229 2053 -242 2182 -247 2424 -4 193
-8 238 -21 253 -14 16 -51 17 -514 17 l-498 0 0 370 c0 204 3 370 7 370 4 0
60 -52 124 -116 101 -99 121 -115 141 -109 13 4 128 111 256 239 175 175 232
238 232 256 0 19 -89 113 -377 403 -212 213 -392 385 -410 393 -27 12 -195 14
-1005 14 -848 0 -977 -2 -1004 -16z m393 -164 c59 -187 219 -325 443 -381 111
-28 290 -23 390 11 205 70 350 207 395 375 l18 65 161 0 161 0 350 -350 350
-350 -180 -180 -179 -180 -146 145 c-153 152 -172 163 -210 125 -19 -19 -20
-33 -20 -470 l0 -450 -323 0 c-276 0 -326 -2 -345 -16 -22 -15 -22 -20 -23
-232 0 -190 -6 -270 -47 -637 l-47 -420 -100 -3 c-214 -7 -549 30 -810 91
l-140 32 -5 1048 c-5 1023 -5 1049 -24 1063 -11 8 -28 14 -39 14 -11 0 -80
-59 -166 -145 l-147 -144 -179 179 -180 180 350 350 350 350 160 0 160 0 22
-70z m223 23 c59 -111 189 -201 322 -224 175 -29 361 58 448 209 l35 61 48 1
c43 0 47 -2 47 -23 0 -40 -52 -130 -105 -182 -209 -205 -600 -205 -810 1 -52
52 -105 144 -105 183 0 18 6 21 48 21 46 0 48 -1 72 -47z m661 18 c-89 -125
-266 -168 -415 -102 -44 19 -136 101 -136 121 0 7 97 10 286 10 l285 0 -20
-29z m469 -1941 l0 -150 -200 0 -200 0 0 150 0 150 200 0 200 0 0 -150z m700
0 l0 -150 -292 2 -293 3 -3 134 c-1 74 -1 140 2 147 4 9 78 13 295 13 l291 1
0 -150z m510 0 l0 -150 -200 0 -200 0 0 150 0 150 200 0 200 0 0 -150z m-1490
-570 l0 -310 -28 -31 c-25 -28 -35 -32 -102 -37 l-73 -5 6 44 c3 24 20 180 38
347 l33 302 63 0 63 0 0 -310z m629 -92 l0 -403 -122 -770 -123 -770 -382 -3
-382 -2 1 27 c0 16 37 363 82 773 l83 745 84 6 c47 4 97 11 111 17 40 16 88
61 112 106 21 39 22 53 25 359 l3 317 255 0 254 0 -1 -402z m633 73 l3 -329
30 -44 c46 -65 102 -91 206 -96 l86 -4 82 -752 c45 -413 84 -761 86 -773 l5
-23 -384 0 -384 0 -6 27 c-3 16 -58 357 -123 758 l-117 730 -4 418 -3 417 260
0 260 0 3 -329z m238 320 c0 -5 16 -149 35 -321 19 -172 35 -323 35 -336 0
-22 -4 -24 -42 -24 -64 0 -115 17 -138 47 -19 25 -20 39 -20 334 l0 309 65 0
c36 0 65 -4 65 -9z m-1140 -2478 c0 -45 -20 -106 -43 -132 -43 -47 -69 -51
-342 -51 -282 0 -301 3 -348 59 -23 27 -27 42 -27 92 l0 59 380 0 380 0 0 -27z
m1411 -10 c3 -84 -16 -125 -71 -155 -32 -17 -56 -18 -312 -16 -261 3 -278 4
-305 24 -35 25 -59 74 -68 137 l-7 47 381 0 381 0 1 -37z"/>
</g>
</svg>
