<?xml version="1.0" standalone="no"?>
<!DOCTYPE svg PUBLIC "-//W3C//DTD SVG 20010904//EN"
 "http://www.w3.org/TR/2001/REC-SVG-20010904/DTD/svg10.dtd">
<svg version="1.0" xmlns="http://www.w3.org/2000/svg"
 width="512.000000pt" height="512.000000pt" viewBox="0 0 512.000000 512.000000"
 preserveAspectRatio="xMidYMid meet">

<g transform="translate(0.000000,512.000000) scale(0.100000,-0.100000)"
fill="#000000" stroke="none">
<path d="M2482 5105 c-29 -8 -67 -22 -84 -31 -43 -22 -126 -101 -155 -148 -60
-95 -58 -55 -63 -860 l-5 -739 -118 484 c-71 292 -128 505 -143 537 -36 74
-107 142 -189 183 -65 32 -76 34 -170 34 -130 -1 -192 -24 -279 -105 -97 -91
-145 -211 -133 -329 4 -31 47 -204 96 -386 49 -181 94 -349 101 -373 8 -33 18
-46 44 -59 29 -13 37 -14 62 -2 57 28 56 36 -52 431 -110 403 -117 456 -77
533 61 115 191 170 315 133 51 -15 129 -85 151 -135 13 -28 377 -1497 377
-1519 0 -2 -9 -4 -19 -4 -21 0 -61 -44 -61 -66 0 -7 5 -25 12 -39 17 -37 65
-47 200 -43 133 4 158 15 158 75 0 46 -29 73 -80 73 l-40 0 2 1018 3 1017 22
40 c82 152 272 190 400 80 22 -19 51 -58 64 -87 l24 -53 0 -1005 0 -1005 -49
-6 c-55 -6 -76 -26 -76 -74 0 -57 27 -70 152 -73 61 -2 126 -1 145 3 42 8 73
37 73 69 0 33 -37 76 -66 76 l-24 0 0 896 c0 652 3 907 12 935 28 94 135 169
238 168 103 0 177 -44 226 -131 l29 -53 3 -226 c3 -209 5 -228 23 -248 27 -29
82 -28 109 1 19 20 20 34 20 233 0 237 -9 294 -63 384 -114 190 -382 250 -569
126 -43 -29 -48 -30 -48 -12 0 8 -14 41 -30 74 -83 165 -291 258 -468 208z"/>
<path d="M4182 4019 c-105 -20 -219 -108 -264 -203 -14 -28 -76 -195 -139
-371 l-114 -320 -5 352 c-4 316 -7 354 -22 373 -24 27 -81 27 -108 0 -20 -20
-20 -33 -20 -560 l0 -540 -44 0 c-36 0 -48 -5 -65 -26 -27 -35 -26 -57 3 -91
l24 -28 140 0 c124 0 142 2 161 19 39 35 23 111 -26 127 -10 3 95 307 323 938
30 82 69 133 123 160 117 60 265 13 320 -102 42 -87 36 -116 -123 -560 -279
-779 -296 -877 -296 -1738 0 -571 -4 -627 -61 -768 -61 -152 -183 -302 -322
-394 -71 -47 -146 -81 -245 -110 -75 -21 -90 -22 -582 -22 -461 0 -511 2 -575
19 -84 22 -197 72 -258 115 -66 45 -87 51 -125 36 -34 -15 -48 -48 -38 -89 13
-52 215 -161 384 -209 73 -20 104 -21 564 -25 409 -3 501 -1 578 12 407 71
718 371 811 781 7 32 14 275 19 680 6 568 9 643 28 760 47 292 76 392 260 898
l145 402 1 105 c1 94 -2 111 -26 162 -51 109 -156 192 -276 217 -60 12 -88 13
-150 0z"/>
<path d="M1452 3097 c-12 -13 -22 -31 -22 -41 0 -10 18 -84 40 -165 59 -219
110 -512 110 -633 l0 -41 -127 124 c-177 172 -292 229 -463 229 -194 0 -399
-119 -476 -276 -27 -54 -29 -68 -29 -169 0 -174 -5 -166 390 -565 192 -193
358 -371 395 -420 90 -122 172 -266 225 -394 107 -257 138 -306 193 -306 34 0
72 36 72 68 0 12 -15 52 -34 89 -19 38 -49 104 -66 148 -68 171 -174 358 -288
510 -25 33 -193 209 -373 390 -205 207 -335 346 -348 372 -26 51 -28 146 -6
201 46 108 204 202 344 202 75 0 175 -31 232 -71 24 -18 136 -123 249 -234
279 -275 309 -291 580 -305 184 -10 268 -25 389 -69 107 -39 189 -90 274 -170
183 -173 270 -402 293 -770 8 -129 19 -151 78 -151 26 0 40 7 56 28 21 25 22
34 16 132 -24 390 -127 664 -322 855 -193 190 -422 278 -772 294 l-162 8 -78
39 -77 39 -12 170 c-19 278 -49 457 -120 725 -21 79 -45 144 -56 158 -27 30
-77 29 -105 -1z"/>
</g>
</svg>
