<?xml version="1.0" standalone="no"?>
<!DOCTYPE svg PUBLIC "-//W3C//DTD SVG 20010904//EN"
 "http://www.w3.org/TR/2001/REC-SVG-20010904/DTD/svg10.dtd">
<svg version="1.0" xmlns="http://www.w3.org/2000/svg"
 width="512.000000pt" height="512.000000pt" viewBox="0 0 512.000000 512.000000"
 preserveAspectRatio="xMidYMid meet">

<g transform="translate(0.000000,512.000000) scale(0.100000,-0.100000)"
fill="#000000" stroke="none">
<path d="M1065 5101 c-62 -37 -65 -51 -65 -263 0 -216 7 -242 69 -268 l31 -12
0 -2227 c0 -2137 1 -2228 18 -2260 32 -60 68 -71 222 -71 142 1 156 4 179 48
15 28 -1 77 -30 92 -10 6 -67 10 -128 10 l-111 0 0 2200 0 2200 1310 0 1310 0
0 -238 c0 -236 0 -239 23 -260 29 -27 67 -28 98 -3 24 19 24 20 27 264 l3 245
31 13 c61 25 68 52 68 267 0 180 -1 196 -21 223 -45 63 63 59 -1541 59 -1407
0 -1464 -1 -1493 -19z m2905 -261 l0 -130 -1410 0 -1410 0 0 130 0 130 1410 0
1410 0 0 -130z"/>
<path d="M1493 4344 c-18 -9 -42 -31 -53 -49 -20 -32 -20 -48 -20 -1315 0
-1414 -4 -1325 63 -1365 31 -20 58 -20 1077 -20 1019 0 1046 0 1077 20 67 40
63 -49 63 1365 0 1269 0 1283 -20 1315 -43 69 24 65 -1122 65 -926 0 -1036 -2
-1065 -16z m2057 -894 l0 -760 -130 0 -130 0 0 591 c0 366 -4 597 -10 609 -20
38 -53 40 -720 40 -667 0 -700 -2 -720 -40 -6 -12 -10 -243 -10 -609 l0 -591
-130 0 -130 0 0 760 0 760 990 0 990 0 0 -760z m-410 -215 l0 -545 -580 0
-580 0 0 545 0 545 580 0 580 0 0 -545z m408 -1092 l-3 -398 -985 0 -985 0 -3
398 -2 397 990 0 990 0 -2 -397z"/>
<path d="M1650 3595 l0 -55 55 0 55 0 0 55 0 55 -55 0 -55 0 0 -55z"/>
<path d="M3360 3595 l0 -55 55 0 55 0 0 55 0 55 -55 0 -55 0 0 -55z"/>
<path d="M1650 3385 l0 -55 55 0 55 0 0 55 0 55 -55 0 -55 0 0 -55z"/>
<path d="M3360 3385 l0 -55 55 0 55 0 0 55 0 55 -55 0 -55 0 0 -55z"/>
<path d="M1650 3180 l0 -60 55 0 55 0 0 60 0 60 -55 0 -55 0 0 -60z"/>
<path d="M3360 3180 l0 -60 55 0 55 0 0 60 0 60 -55 0 -55 0 0 -60z"/>
<path d="M1650 2970 l0 -60 55 0 55 0 0 60 0 60 -55 0 -55 0 0 -60z"/>
<path d="M3360 2970 l0 -60 55 0 55 0 0 60 0 60 -55 0 -55 0 0 -60z"/>
<path d="M2212 3440 c-32 -30 -30 -82 4 -109 26 -20 38 -21 344 -21 306 0 318
1 344 21 34 27 36 79 4 109 -21 19 -34 20 -348 20 -314 0 -327 -1 -348 -20z"/>
<path d="M2245 3193 c-55 -14 -75 -83 -35 -123 19 -19 33 -20 350 -20 317 0
331 1 350 20 27 27 26 81 -1 106 -20 18 -42 19 -333 21 -171 0 -320 -1 -331
-4z"/>
<path d="M2815 2420 c-34 -37 -12 -120 32 -120 8 0 13 -11 13 -27 0 -66 14
-106 47 -139 l34 -34 153 0 c142 0 155 2 181 22 35 27 55 75 55 133 0 32 4 45
14 45 18 0 56 47 56 70 0 10 -9 29 -21 44 l-20 26 -263 0 c-251 0 -264 -1
-281 -20z m365 -150 c0 -18 -7 -20 -80 -20 -73 0 -80 2 -80 20 0 18 7 20 80
20 73 0 80 -2 80 -20z"/>
<path d="M1990 2335 l0 -45 40 0 40 0 0 45 0 45 -40 0 -40 0 0 -45z"/>
<path d="M2150 2334 l0 -45 43 3 c42 3 42 3 45 46 l3 42 -45 0 -46 0 0 -46z"/>
<path d="M2314 2366 c-3 -8 -4 -27 -2 -43 3 -25 7 -28 46 -31 l42 -3 0 45 0
46 -40 0 c-26 0 -43 -5 -46 -14z"/>
<path d="M2480 2335 l0 -46 43 3 c42 3 42 3 42 43 0 40 0 40 -42 43 l-43 3 0
-46z"/>
<path d="M1990 2155 l0 -45 40 0 40 0 0 45 0 45 -40 0 -40 0 0 -45z"/>
<path d="M2150 2156 l0 -46 46 0 45 0 -3 43 c-3 42 -3 42 -45 45 l-43 3 0 -45z"/>
<path d="M2314 2186 c-3 -8 -4 -27 -2 -43 3 -25 7 -28 46 -31 l42 -3 0 45 0
46 -40 0 c-26 0 -43 -5 -46 -14z"/>
<path d="M2480 2155 l0 -46 43 3 c42 3 42 3 42 43 0 40 0 40 -42 43 l-43 3 0
-46z"/>
<path d="M1990 1975 l0 -45 40 0 40 0 0 45 0 45 -40 0 -40 0 0 -45z"/>
<path d="M2150 1976 l0 -46 46 0 45 0 -3 43 c-3 42 -3 42 -45 45 l-43 3 0 -45z"/>
<path d="M2317 2013 c-4 -3 -7 -24 -7 -45 l0 -38 45 0 45 0 0 45 0 45 -38 0
c-21 0 -42 -3 -45 -7z"/>
<path d="M2480 1976 l0 -46 46 0 45 0 -3 43 c-3 42 -3 42 -45 45 l-43 3 0 -45z"/>
<path d="M3896 3609 l-26 -20 0 -1720 0 -1719 -964 0 c-959 0 -963 0 -990 -21
-34 -27 -35 -71 -1 -104 l24 -25 992 0 c977 0 992 0 1024 20 70 43 65 -99 65
1815 0 1293 -3 1732 -12 1748 -26 50 -69 60 -112 26z"/>
</g>
</svg>
