<?xml version="1.0" standalone="no"?>
<!DOCTYPE svg PUBLIC "-//W3C//DTD SVG 20010904//EN"
 "http://www.w3.org/TR/2001/REC-SVG-20010904/DTD/svg10.dtd">
<svg version="1.0" xmlns="http://www.w3.org/2000/svg"
 width="512.000000pt" height="512.000000pt" viewBox="0 0 512.000000 512.000000"
 preserveAspectRatio="xMidYMid meet">

<g transform="translate(0.000000,512.000000) scale(0.100000,-0.100000)"
fill="#000000" stroke="none">
<path d="M1305 4076 c-179 -29 -315 -74 -475 -157 -357 -183 -622 -492 -750
-878 -59 -174 -74 -276 -74 -481 0 -206 16 -306 75 -485 172 -518 599 -897
1145 -1017 136 -29 453 -32 589 -5 255 52 509 172 697 329 l47 39 68 -54 c207
-167 445 -272 717 -319 155 -26 407 -21 554 11 620 136 1083 612 1198 1231 25
131 25 409 0 540 -104 556 -499 1011 -1029 1185 -179 58 -258 70 -482 70 -173
0 -214 -3 -303 -23 -257 -58 -463 -155 -654 -309 l-68 -54 -67 54 c-188 151
-409 255 -655 308 -120 26 -415 35 -533 15z m1447 -590 c24 -30 51 -69 61 -85
l18 -31 -255 0 c-172 0 -256 3 -256 10 0 6 23 44 50 85 l51 75 144 0 145 0 42
-54z m200 -350 c15 -38 28 -73 28 -78 0 -4 -189 -8 -420 -8 l-420 0 40 80 40
80 352 -2 351 -3 29 -69z m-1869 -273 c4 -38 7 -137 7 -221 0 -84 4 -151 8
-148 5 3 51 102 103 220 l94 216 148 0 c81 0 147 -1 147 -3 0 -1 -31 -164 -70
-362 -38 -198 -70 -363 -70 -367 0 -5 -40 -8 -90 -8 -65 0 -90 3 -90 13 0 6
22 129 50 271 27 143 48 261 47 262 -1 2 -56 -121 -122 -272 l-120 -274 -82 0
-83 0 0 33 c-1 35 -28 499 -30 507 -1 3 -24 -107 -50 -245 -27 -137 -52 -260
-55 -272 -5 -21 -11 -23 -85 -23 -44 0 -80 3 -80 6 0 11 131 697 136 717 5 15
21 17 143 17 l138 0 6 -67z m2396 20 c-5 -27 -11 -58 -14 -70 -5 -21 -2 -23
41 -23 l46 0 -7 -47 c-13 -92 -12 -92 -63 -95 l-47 -3 -22 -115 c-36 -189 -33
-200 46 -200 l38 0 -12 -62 c-10 -59 -13 -64 -45 -75 -77 -26 -173 -10 -214
35 -34 38 -30 94 24 387 28 154 53 288 56 298 5 14 18 17 93 17 l88 0 -8 -47z
m-1469 -106 c62 -30 90 -75 90 -146 0 -31 -14 -143 -32 -248 l-33 -193 -72 0
-73 0 0 30 0 29 -36 -24 c-43 -29 -133 -49 -183 -40 -86 16 -131 73 -131 166
0 74 31 134 89 170 61 39 109 51 211 55 l85 3 0 33 c0 29 -4 34 -40 47 -32 10
-59 11 -130 3 -49 -6 -98 -14 -109 -18 -17 -7 -18 -4 -12 42 14 96 11 91 89
104 40 7 79 13 87 15 39 9 159 -8 200 -28z m581 -4 c89 -48 121 -133 99 -262
l-12 -71 -178 0 c-98 0 -181 -3 -183 -7 -3 -5 0 -24 7 -43 16 -49 61 -70 152
-70 39 0 94 7 123 16 29 8 54 14 56 12 4 -4 -24 -140 -29 -145 -2 -2 -45 -9
-95 -16 -142 -18 -269 11 -328 75 -64 68 -81 197 -43 321 58 186 268 279 431
190z m597 22 c2 -2 -3 -32 -9 -69 l-12 -66 -98 0 c-89 0 -99 -2 -113 -22 -23
-32 -6 -52 78 -92 98 -48 121 -78 121 -166 0 -111 -53 -166 -185 -190 -67 -12
-245 -5 -270 10 -11 7 -12 20 -2 71 6 34 13 63 15 65 2 2 19 -1 38 -6 18 -6
70 -10 115 -10 67 0 84 3 98 19 30 33 16 54 -64 94 -91 45 -129 81 -140 133
-11 47 3 116 30 155 24 33 93 68 157 79 40 6 232 3 241 -5z m1201 -1 c61 -18
123 -69 154 -128 18 -34 22 -57 22 -141 0 -89 -4 -107 -29 -163 -32 -70 -85
-124 -155 -156 -64 -29 -257 -31 -311 -2 -58 31 -108 86 -126 139 -23 69 -15
204 16 275 64 147 258 227 429 176z m-402 -2 c10 -6 5 -28 -19 -90 l-31 -82
-44 0 c-78 0 -107 -54 -153 -285 -11 -60 -24 -118 -26 -127 -5 -16 -18 -18
-96 -18 -88 0 -90 0 -85 23 3 12 24 123 47 247 22 124 45 249 51 278 l10 52
81 0 81 0 -7 -42 -7 -43 38 37 c21 20 49 41 63 47 30 12 81 13 97 3z m624
-512 c26 -15 26 -66 -1 -80 -51 -27 -95 36 -50 72 26 21 26 21 51 8z m-1732
-450 l-43 -80 -275 0 -276 0 -43 80 -43 80 361 0 361 0 -42 -80z m-169 -248
c0 -4 -34 -41 -75 -82 l-75 -74 -66 64 c-106 105 -109 100 66 100 82 0 150 -3
150 -8z"/>
<path d="M1763 2445 c-54 -23 -70 -78 -33 -115 55 -55 170 19 170 110 0 18 -6
20 -52 20 -29 -1 -67 -7 -85 -15z"/>
<path d="M2403 2660 c-23 -9 -63 -65 -63 -87 0 -16 185 -18 195 -3 10 16 -15
79 -35 90 -23 12 -67 12 -97 0z"/>
<path d="M4213 2640 c-68 -41 -105 -186 -66 -260 21 -40 64 -65 99 -56 30 8
91 61 108 95 36 70 27 195 -17 226 -30 21 -86 19 -124 -5z"/>
<path d="M4557 2264 c-13 -14 -7 -43 12 -53 24 -13 55 8 50 35 -4 19 -48 32
-62 18z m43 -22 c0 -10 -7 -19 -15 -19 -8 0 -15 9 -15 19 0 10 7 18 15 18 8 0
15 -8 15 -18z"/>
<path d="M4936 1747 c-28 -21 -18 -69 18 -82 24 -8 31 -6 47 13 19 24 16 49
-9 70 -20 15 -34 15 -56 -1z m43 -39 c-1 -21 -2 -21 -7 -3 l-5 20 -8 -20 c-7
-19 -8 -19 -8 3 -1 13 5 22 14 22 9 0 15 -9 14 -22z"/>
</g>
</svg>
