<?xml version="1.0" standalone="no"?>
<!DOCTYPE svg PUBLIC "-//W3C//DTD SVG 20010904//EN"
 "http://www.w3.org/TR/2001/REC-SVG-20010904/DTD/svg10.dtd">
<svg version="1.0" xmlns="http://www.w3.org/2000/svg"
 width="512.000000pt" height="512.000000pt" viewBox="0 0 512.000000 512.000000"
 preserveAspectRatio="xMidYMid meet">

<g transform="translate(0.000000,512.000000) scale(0.100000,-0.100000)"
fill="#000000" stroke="none">
<path d="M1140 5107 c-47 -15 -126 -95 -139 -141 -5 -21 -202 -920 -437 -1998
-418 -1919 -427 -1961 -415 -2013 14 -62 64 -125 125 -158 40 -22 50 -22 456
-25 283 -3 431 0 467 8 61 13 122 54 152 103 16 26 59 212 159 679 l137 643
535 6 c419 5 558 9 642 22 411 62 753 236 1024 519 248 260 405 576 476 956
30 164 31 407 1 542 -46 209 -132 370 -277 516 -139 139 -289 229 -486 292
-194 62 -201 62 -1346 61 -731 -1 -1049 -4 -1074 -12z m1762 -914 c248 -117
319 -408 172 -705 -100 -204 -294 -366 -502 -419 -67 -17 -112 -19 -410 -19
l-334 0 5 23 c3 12 63 278 133 590 l129 568 370 -3 370 -3 67 -32z"/>
<path d="M4580 4001 c0 -186 -45 -446 -111 -644 -247 -741 -850 -1242 -1628
-1354 -77 -11 -230 -16 -558 -20 -249 -3 -453 -8 -453 -12 0 -3 -54 -257 -119
-563 -134 -624 -136 -632 -240 -731 -114 -109 -208 -137 -467 -137 l-171 0
-33 -151 c-37 -175 -35 -214 13 -286 22 -32 49 -56 86 -75 l53 -28 430 0 c301
0 442 4 470 12 49 14 121 77 139 120 7 18 75 319 149 668 l136 635 559 6 c573
6 595 7 779 49 749 170 1282 802 1358 1608 14 151 0 316 -37 448 -52 183 -178
388 -303 492 l-52 44 0 -81z"/>
</g>
</svg>
