<?xml version="1.0" standalone="no"?>
<!DOCTYPE svg PUBLIC "-//W3C//DTD SVG 20010904//EN"
 "http://www.w3.org/TR/2001/REC-SVG-20010904/DTD/svg10.dtd">
<svg version="1.0" xmlns="http://www.w3.org/2000/svg"
 width="683.000000pt" height="219.000000pt" viewBox="0 0 683.000000 219.000000"
 preserveAspectRatio="xMidYMid meet">

<g transform="translate(0.000000,219.000000) scale(0.100000,-0.100000)"
fill="#000000" stroke="none">
<path d="M5760 1923 c-87 -14 -237 -77 -332 -139 -171 -110 -335 -346 -377
-542 -14 -69 -14 -336 0 -404 32 -147 139 -328 263 -445 178 -167 375 -243
630 -243 55 0 130 7 166 14 114 25 269 95 354 161 18 14 17 17 -29 72 -57 70
-124 143 -130 143 -3 0 -44 -36 -92 -81 -49 -44 -95 -84 -104 -89 -12 -7 -35
12 -100 82 -137 149 -249 280 -249 290 0 6 19 28 42 49 39 35 41 39 26 56
-173 196 -218 250 -218 259 0 5 16 25 35 44 19 19 35 39 35 45 0 6 -49 67
-110 135 -60 69 -110 130 -110 135 0 13 106 117 259 254 l114 102 66 -65 66
-65 100 90 100 89 62 -62 63 -62 27 20 c43 32 51 51 28 68 -29 22 -172 73
-240 85 -56 10 -291 13 -345 4z"/>
<path d="M6426 1709 c-23 -18 -56 -67 -56 -83 0 -9 71 -86 79 -86 4 0 30 20
58 44 l51 43 -45 52 c-24 28 -48 51 -52 51 -5 0 -20 -9 -35 -21z"/>
<path d="M6073 1632 l-71 -67 73 -78 73 -78 70 61 c39 34 73 68 76 76 6 16
-118 154 -138 154 -6 -1 -43 -31 -83 -68z"/>
<path d="M5743 1581 c-38 -32 -80 -72 -96 -88 l-27 -29 30 -42 c16 -23 58 -71
92 -108 l63 -66 100 95 c99 94 100 95 85 120 -26 43 -151 177 -165 177 -8 0
-45 -26 -82 -59z"/>
<path d="M1438 1448 l-38 -10 0 -359 0 -358 73 -23 c230 -70 367 28 367 261 0
101 -15 148 -59 192 -60 61 -123 69 -248 33 l-23 -6 0 141 c0 157 4 149 -72
129z m240 -333 c14 -4 30 -21 38 -41 17 -41 20 -175 5 -229 -21 -75 -51 -95
-140 -95 l-61 0 0 174 c0 104 4 177 10 181 15 9 93 23 110 20 8 -2 26 -6 38
-10z"/>
<path d="M37 1413 c-15 -2 -27 -8 -27 -12 0 -5 33 -154 74 -332 41 -178 77
-339 81 -356 6 -32 8 -33 61 -33 l53 0 15 53 c8 28 37 137 65 241 50 184 56
204 65 195 6 -6 66 -210 107 -362 18 -66 38 -121 46 -124 7 -3 33 -2 57 1 l43
7 22 97 c71 305 131 580 131 600 0 20 -5 22 -54 22 -48 0 -54 -3 -59 -22 -3
-13 -27 -133 -53 -268 l-48 -245 -26 85 c-15 47 -49 170 -75 273 -37 145 -52
187 -62 182 -8 -3 -29 -5 -47 -5 l-32 0 -58 -237 c-58 -240 -72 -290 -81 -281
-4 4 -115 510 -115 524 0 5 -42 3 -83 -3z"/>
<path d="M1994 1413 c-32 -4 -32 -4 -39 -80 -4 -42 -4 -203 0 -359 7 -276 8
-282 29 -288 57 -15 56 -18 57 142 1 81 4 198 8 260 l6 114 52 -124 c29 -67
75 -178 104 -246 56 -135 86 -170 116 -139 9 9 63 132 120 274 l103 258 0
-272 0 -273 55 0 55 0 0 371 c0 334 -2 371 -16 365 -9 -3 -37 -6 -62 -6 l-47
0 -69 -182 c-91 -240 -142 -362 -152 -365 -5 -2 -59 122 -121 274 -123 308
-109 288 -199 276z"/>
<path d="M6544 1370 l-51 -49 48 -47 c53 -53 49 -53 127 13 l33 28 -53 52 -53
52 -51 -49z"/>
<path d="M6226 1315 l-79 -74 68 -73 c38 -40 73 -73 77 -73 13 0 129 98 140
118 11 22 2 38 -74 119 l-53 57 -79 -74z"/>
<path d="M5862 1189 l-103 -91 92 -99 c50 -54 97 -99 104 -99 15 0 66 40 150
119 l64 60 -95 100 c-53 56 -99 101 -103 101 -4 0 -53 -41 -109 -91z"/>
<path d="M1045 1201 c-45 -11 -68 -26 -108 -70 -43 -48 -61 -104 -60 -191 0
-92 18 -145 65 -196 57 -61 123 -81 221 -65 85 14 125 34 133 66 10 40 -2 45
-61 24 -67 -23 -162 -25 -193 -3 -29 20 -62 85 -62 124 l0 30 168 0 169 0 -9
66 c-23 169 -121 249 -263 215z m121 -93 c24 -28 44 -72 44 -98 0 -19 -8 -20
-110 -20 -129 0 -134 4 -96 78 29 57 34 60 97 61 35 1 50 -4 65 -21z"/>
<path d="M2950 1201 c-122 -40 -180 -141 -167 -293 8 -92 46 -162 111 -202
101 -63 245 -26 311 79 28 46 30 54 30 154 0 112 -10 146 -59 199 -46 52 -163
84 -226 63z m122 -91 c61 -48 82 -204 40 -292 -42 -86 -150 -94 -198 -15 -29
49 -27 216 3 274 26 47 33 51 89 52 27 1 50 -6 66 -19z"/>
<path d="M3530 1204 c-38 -8 -90 -24 -142 -46 l-48 -20 0 -229 0 -229 50 0 50
0 0 205 0 205 28 12 c45 18 144 22 166 5 26 -19 34 -87 35 -274 l1 -153 28 0
c15 0 37 3 50 7 l24 6 -4 216 c-3 233 -7 249 -57 275 -30 16 -139 28 -181 20z"/>
<path d="M4027 1196 c-54 -20 -102 -63 -134 -121 -21 -38 -24 -181 -4 -247 19
-67 70 -122 125 -138 60 -17 201 -9 243 13 33 17 54 61 37 77 -5 4 -34 0 -64
-10 -144 -48 -249 0 -250 113 l0 37 165 0 165 0 0 28 c0 48 -30 153 -51 183
-43 61 -157 93 -232 65z m150 -105 c13 -19 23 -49 23 -67 l0 -34 -110 0 c-123
0 -123 0 -95 68 23 55 51 73 110 70 44 -3 52 -7 72 -37z"/>
<path d="M4350 1177 c0 -7 43 -122 95 -257 l94 -244 -25 -43 c-14 -24 -43 -55
-65 -68 -33 -22 -39 -30 -39 -60 0 -31 3 -35 25 -35 68 0 133 66 181 185 46
114 194 516 194 527 0 4 -24 8 -53 8 l-53 0 -28 -92 c-54 -185 -79 -258 -87
-258 -11 0 -26 36 -85 208 l-49 142 -52 0 c-36 0 -53 -4 -53 -13z"/>
<path d="M6677 1049 l-47 -41 41 -49 c22 -27 45 -49 51 -49 11 0 107 72 108
80 0 11 -82 100 -93 100 -7 0 -33 -19 -60 -41z"/>
<path d="M6379 988 c-34 -29 -70 -59 -81 -67 -18 -14 -16 -18 54 -88 40 -40
77 -73 82 -73 5 0 33 21 64 48 30 26 64 54 75 63 20 17 20 18 -47 93 -38 42
-72 76 -77 76 -4 0 -36 -24 -70 -52z"/>
<path d="M6025 831 c-54 -49 -101 -93 -103 -99 -3 -11 142 -178 167 -191 27
-14 57 5 143 88 l82 79 -49 58 c-28 32 -70 79 -95 106 l-45 47 -100 -88z"/>
<path d="M6509 653 c-41 -37 -74 -70 -74 -73 0 -4 32 -41 71 -83 l70 -76 74
74 74 74 -60 72 c-33 40 -65 74 -71 76 -6 2 -44 -27 -84 -64z"/>
</g>
</svg>
